<svg width="576" height="477" viewBox="0 0 576 477" fill="none" xmlns="http://www.w3.org/2000/svg">
<mask id="mask0_395_3258" style="mask-type:alpha" maskUnits="userSpaceOnUse" x="316" y="18" width="242" height="424">
<path fill-rule="evenodd" clip-rule="evenodd" d="M505.147 183.336C514.768 205.33 529.23 226.433 550.664 249.939C552.536 251.966 556.952 256.771 557.547 264.236C558.206 272.282 554.14 278.029 552.411 280.458C540.857 296.857 531.76 316.038 522.967 334.58L522.443 335.685C513.318 355.032 510.849 371.995 507.721 393.483L507.708 393.573L506.883 398.843C504.303 415.839 498.315 427.567 488.285 434.684C483.057 438.442 477.183 440.625 470.561 441.362C465.913 441.879 461.059 441.595 455.779 440.652C439.233 437.607 422.314 435.412 404.112 433.965C408.098 427.488 410.784 419.331 412.297 409.362L413.122 404.092L413.136 404.002C416.263 382.515 418.732 365.551 427.857 346.205L428.381 345.099C437.174 326.558 446.271 307.377 457.825 290.977C459.555 288.549 463.62 282.801 462.961 274.755C462.366 267.29 457.95 262.485 456.078 260.458C434.644 236.953 420.182 215.85 410.561 193.855C406.88 185.449 404.237 176.371 401.468 166.858C401.391 166.593 401.314 166.327 401.237 166.062C401.141 165.734 401.046 165.407 400.951 165.079C397.232 152.275 393.39 139.051 386.578 126.27C375.791 105.689 359.578 92.2823 343.924 79.3373L343.44 78.9368C341.116 77.0772 338.781 75.1142 336.445 73.1513C335.277 72.1697 334.109 71.1881 332.943 70.2194C330.864 68.45 327.83 65.4926 324.654 62.3155C321.994 59.6784 319.189 56.8975 316.264 54.112C322.629 46.0792 329.393 37.8985 337.737 30.735C342.462 26.6793 349.845 21.1512 359.488 19.0197C365.336 17.6633 371.636 18.2571 378.13 20.5945C393.197 25.9796 407.606 40.2633 419.239 51.7962C422.416 54.9733 425.45 57.9308 427.529 59.7001C428.695 60.6688 429.863 61.6505 431.031 62.6321C433.366 64.595 435.702 66.5579 438.026 68.4175L438.51 68.818C454.164 81.763 470.376 95.1695 481.164 115.751C487.976 128.532 491.817 141.756 495.537 154.56C495.632 154.888 495.727 155.215 495.822 155.542C495.899 155.808 495.977 156.073 496.054 156.338C498.823 165.851 501.466 174.93 505.147 183.336Z" fill="url(#paint0_linear_395_3258)"/>
</mask>
<g mask="url(#mask0_395_3258)">
<path fill-rule="evenodd" clip-rule="evenodd" d="M505.147 183.336C514.768 205.33 529.23 226.433 550.664 249.939C552.536 251.966 556.952 256.771 557.547 264.236C558.206 272.282 554.14 278.029 552.411 280.458C540.857 296.857 531.76 316.038 522.967 334.58L522.443 335.685C513.318 355.032 510.849 371.995 507.721 393.483L507.708 393.573L506.883 398.843C504.303 415.839 498.315 427.567 488.285 434.684C483.057 438.442 477.183 440.625 470.561 441.362C465.913 441.879 461.059 441.595 455.779 440.652C439.233 437.607 422.314 435.412 404.112 433.965C408.098 427.488 410.784 419.331 412.297 409.362L413.122 404.092L413.136 404.002C416.263 382.515 418.732 365.551 427.857 346.205L428.381 345.099C437.174 326.558 446.271 307.377 457.825 290.977C459.555 288.549 463.62 282.801 462.961 274.755C462.366 267.29 457.95 262.485 456.078 260.458C434.644 236.953 420.182 215.85 410.561 193.855C406.88 185.449 404.237 176.371 401.468 166.858C401.391 166.593 401.314 166.327 401.237 166.062C401.141 165.734 401.046 165.407 400.951 165.079C397.232 152.275 393.39 139.051 386.578 126.27C375.791 105.689 359.578 92.2823 343.924 79.3373L343.44 78.9368C341.116 77.0772 338.781 75.1142 336.445 73.1513C335.277 72.1697 334.109 71.1881 332.943 70.2194C330.864 68.45 327.83 65.4926 324.654 62.3155C321.994 59.6784 319.189 56.8975 316.264 54.112C322.629 46.0792 329.393 37.8985 337.737 30.735C342.462 26.6793 349.845 21.1512 359.488 19.0197C365.336 17.6633 371.636 18.2571 378.13 20.5945C393.197 25.9796 407.606 40.2633 419.239 51.7962C422.416 54.9733 425.45 57.9308 427.529 59.7001C428.695 60.6688 429.863 61.6505 431.031 62.6321C433.366 64.595 435.702 66.5579 438.026 68.4175L438.51 68.818C454.164 81.763 470.376 95.1695 481.164 115.751C487.976 128.532 491.817 141.756 495.537 154.56C495.632 154.888 495.727 155.215 495.822 155.542C495.899 155.808 495.977 156.073 496.054 156.338C498.823 165.851 501.466 174.93 505.147 183.336Z" fill="url(#paint1_linear_395_3258)"/>
<path d="M473.529 260.457C452.095 236.952 437.633 215.849 428.012 193.854C424.228 185.214 421.542 175.863 418.687 166.061C414.877 152.952 411.015 139.378 404.029 126.269C393.13 105.476 376.694 92.0057 360.891 78.936C357.405 76.1465 353.893 73.1244 350.394 70.2186C348.315 68.4493 345.281 65.4918 342.105 62.3148C330.471 50.7818 316.062 36.4981 300.995 31.1131C294.502 28.7757 288.202 28.1818 282.354 29.5382C272.71 31.6697 265.327 37.1979 260.602 41.2535C251.154 49.3649 243.732 58.7805 236.62 67.8088C234.865 70.0045 233.109 72.2001 231.47 74.3829C223.093 84.7286 214.058 94.4414 204.364 103.521C202.557 105.252 200.724 106.75 198.788 108.378C192.747 113.286 185.079 119.434 180.42 131.484C175.271 144.413 174.912 158.103 174.591 170.024C174.552 171.794 174.514 173.563 174.462 175.216C173.023 216.21 164.301 256.248 148.273 294.039L147.331 296.145C143.692 304.669 139.588 314.304 138.944 325.437C136.755 363.925 174.701 392.066 192.905 405.575C217.914 424.211 246.886 441.464 288.882 442.56C322.615 443.398 351.146 446.109 378.644 451.171C383.924 452.113 388.779 452.397 393.426 451.88C400.049 451.144 405.922 448.961 411.15 445.202C421.18 438.085 427.168 426.358 429.748 409.361L430.573 404.092C433.707 382.561 436.17 365.577 445.308 346.204C454.264 327.321 463.492 307.702 475.276 290.976C477.006 288.548 481.071 282.8 480.412 274.754C479.817 267.289 475.401 262.485 473.529 260.457Z" fill="white" fill-opacity="0.38"/>
</g>
<path d="M384.257 258.751C362.824 235.246 348.362 214.143 338.741 192.148C334.957 183.508 332.27 174.157 329.416 164.355C325.606 151.246 321.744 137.672 314.758 124.563C303.859 103.77 287.423 90.2997 271.619 77.23C268.133 74.4404 264.621 71.4184 261.122 68.5126C259.044 66.7432 256.009 63.7858 252.833 60.6087C241.2 49.0758 226.79 34.792 211.724 29.407C205.23 27.0696 198.93 26.4758 193.082 27.8322C183.439 29.9637 176.055 35.4918 171.331 39.5475C161.882 47.6588 154.46 57.0745 147.349 66.1027C145.593 68.2984 143.838 70.4941 142.199 72.6769C133.822 83.0225 124.786 92.7354 115.092 101.815C113.285 103.546 111.452 105.044 109.516 106.672C103.475 111.58 95.8075 117.728 91.1488 129.778C85.9997 142.707 85.6403 156.397 85.3193 168.318C85.2808 170.088 85.2423 171.857 85.1909 173.51C83.751 214.504 75.0299 254.542 59.0015 292.333L58.0595 294.439C54.4202 302.963 50.3162 312.598 49.6723 323.731C47.4833 362.219 85.4291 390.36 103.634 403.869C128.643 422.505 157.615 439.758 199.61 440.854C233.343 441.692 261.874 444.403 289.373 449.465C294.653 450.407 299.507 450.691 304.154 450.174C310.777 449.438 316.651 447.255 321.879 443.496C331.908 436.379 337.897 424.652 340.476 407.655L341.302 402.385C344.436 380.855 346.899 363.871 356.036 344.498C364.993 325.615 374.22 305.996 386.005 289.27C387.734 286.842 391.8 281.094 391.14 273.048C390.545 265.583 386.129 260.779 384.257 258.751Z" fill="url(#paint2_linear_395_3258)"/>
<path d="M384.257 258.751C362.824 235.246 348.362 214.143 338.741 192.148C334.957 183.508 332.27 174.157 329.416 164.355C325.606 151.246 321.744 137.672 314.758 124.563C303.859 103.77 287.423 90.2997 271.619 77.23C268.133 74.4404 264.621 71.4184 261.122 68.5126C259.044 66.7432 256.009 63.7858 252.833 60.6087C241.2 49.0758 226.79 34.792 211.724 29.407C205.23 27.0696 198.93 26.4758 193.082 27.8322C183.439 29.9637 176.055 35.4918 171.331 39.5475C161.882 47.6588 154.46 57.0745 147.349 66.1027C145.593 68.2984 143.838 70.4941 142.199 72.6769C133.822 83.0225 124.786 92.7354 115.092 101.815C113.285 103.546 111.452 105.044 109.516 106.672C103.475 111.58 95.8075 117.728 91.1488 129.778C85.9997 142.707 85.6403 156.397 85.3193 168.318C85.2808 170.088 85.2423 171.857 85.1909 173.51C83.751 214.504 75.0299 254.542 59.0015 292.333L58.0595 294.439C54.4202 302.963 50.3162 312.598 49.6723 323.731C47.4833 362.219 85.4291 390.36 103.634 403.869C128.643 422.505 157.615 439.758 199.61 440.854C233.343 441.692 261.874 444.403 289.373 449.465C294.653 450.407 299.507 450.691 304.154 450.174C310.777 449.438 316.651 447.255 321.879 443.496C331.908 436.379 337.897 424.652 340.476 407.655L341.302 402.385C344.436 380.855 346.899 363.871 356.036 344.498C364.993 325.615 374.22 305.996 386.005 289.27C387.734 286.842 391.8 281.094 391.14 273.048C390.545 265.583 386.129 260.779 384.257 258.751Z" fill="white" fill-opacity="0.38"/>
<path d="M366.81 258.751C345.376 235.246 330.914 214.143 321.293 192.148C317.51 183.508 314.823 174.157 311.969 164.355C308.158 151.246 304.296 137.672 297.31 124.563C286.411 103.77 269.975 90.2997 254.172 77.23C250.686 74.4404 247.174 71.4184 243.675 68.5126C241.596 66.7432 238.562 63.7858 235.386 60.6087C223.752 49.0758 209.343 34.792 194.277 29.407C187.783 27.0696 181.483 26.4758 175.635 27.8322C165.992 29.9637 158.608 35.4918 153.884 39.5475C144.435 47.6588 137.013 57.0745 129.901 66.1027C128.146 68.2984 126.39 70.4941 124.751 72.6769C116.374 83.0225 107.339 92.7354 97.6451 101.815C95.838 103.546 94.005 105.044 92.0688 106.672C86.0278 111.58 78.3602 117.728 73.7016 129.778C68.5525 142.707 68.193 156.397 67.872 168.318C67.8335 170.088 67.7951 171.857 67.7437 173.51C66.3038 214.504 57.5826 254.542 41.5543 292.333L40.6122 294.439C36.9729 302.963 32.8689 312.598 32.2251 323.731C30.036 362.219 67.9819 390.36 86.1866 403.869C111.195 422.505 140.167 439.758 182.163 440.854C215.896 441.692 244.427 444.403 271.925 449.465C277.206 450.407 282.06 450.691 286.707 450.174C293.33 449.438 299.203 447.255 304.431 443.496C314.461 436.379 320.449 424.652 323.029 407.655L323.854 402.385C326.988 380.855 329.452 363.871 338.589 344.498C347.546 325.615 356.773 305.996 368.557 289.27C370.287 286.842 374.353 281.094 373.693 273.048C373.098 265.583 368.682 260.779 366.81 258.751Z" fill="url(#paint3_linear_395_3258)"/>
<defs>
<linearGradient id="paint0_linear_395_3258" x1="451.87" y1="8.78389" x2="420.5" y2="438.117" gradientUnits="userSpaceOnUse">
<stop offset="0.447322" stop-color="#C322FF"/>
<stop offset="0.60672" stop-color="#A1BFFF"/>
<stop offset="0.752482" stop-color="#2469FF"/>
</linearGradient>
<linearGradient id="paint1_linear_395_3258" x1="511.31" y1="380.575" x2="356.177" y2="63.9537" gradientUnits="userSpaceOnUse">
<stop stop-color="#C322FF"/>
<stop offset="1" stop-color="#2469FF"/>
</linearGradient>
<linearGradient id="paint2_linear_395_3258" x1="310.035" y1="393.265" x2="190.885" y2="47.7299" gradientUnits="userSpaceOnUse">
<stop stop-color="#C322FF"/>
<stop offset="1" stop-color="#2469FF"/>
</linearGradient>
<linearGradient id="paint3_linear_395_3258" x1="292.587" y1="393.265" x2="173.437" y2="47.7299" gradientUnits="userSpaceOnUse">
<stop stop-color="#C322FF"/>
<stop offset="1" stop-color="#2469FF"/>
</linearGradient>
</defs>
</svg>
